# xmcd
# 
# Track frame offsets:
#     150
#     16416
#     33455
#     50421
#     63999
#     79404
#     97299
#     113403
#     127276
#     142756
#     162952
#     179551
#     197385
# 
# Disc length: 2852
# 
# Revision: 2
# Processed by: cddbd v1.5.2PL0 Copyright (c) Steve Scherf et al.
# Submitted via: fre:ac v1.0.27
# 
DISCID=b20b220d
DTITLE=The Common Linnets - The Common Linnets II
DYEAR=2015
DGENRE=Country
TTITLE0=We Don't Make The Wind Blow
TTITLE1=That Part
TTITLE2=Hearts On Fire
TTITLE3=Runaway Man
TTITLE4=In Your Eyes
TTITLE5=Dust Of Oklahoma
TTITLE6=Indigo Moon
TTITLE7=Better Than That
TTITLE8=Days Of Endless Time
TTITLE9=Soho Waltz
TTITLE10=As If Only
TTITLE11=Walls Of Jericho
TTITLE12=Proud
EXTD=YEAR: 2015
EXTT0=
EXTT1=
EXTT2=
EXTT3=
EXTT4=
EXTT5=
EXTT6=
EXTT7=
EXTT8=
EXTT9=
EXTT10=
EXTT11=
EXTT12=
PLAYORDER=
